<svg width="146" height="46" viewBox="0 0 146 46" fill="none" xmlns="http://www.w3.org/2000/svg">
<path fill-rule="evenodd" clip-rule="evenodd" d="M32.8783 24.2549C32.9131 24.0967 32.9481 23.9373 32.9573 23.7814C33.0345 23.3178 33.0066 22.8821 32.9573 22.4617C32.8238 21.6325 32.3958 20.9309 31.7428 20.4459C31.0893 19.955 30.2962 19.6386 29.5031 19.4421C28.7095 19.2385 27.9159 19.1406 27.1721 19.0984C26.2942 19.042 25.4726 19.0486 24.7211 19.0984V33.8713C26.1743 32.7055 27.5579 31.4976 28.8075 30.2409C29.6153 29.4194 30.3947 28.605 31.0756 27.7555C31.4056 27.3269 31.722 26.8989 31.9957 26.4704C32.2836 26.0002 32.445 25.7189 32.6486 25.1502C32.6764 25.0513 32.7028 24.9523 32.7292 24.854C32.7626 24.7292 32.7957 24.6054 32.8309 24.4836C32.8446 24.408 32.8614 24.3316 32.8783 24.2549ZM10.2082 36.0125H21.9199C22.2707 35.7602 22.6216 35.5002 22.9659 35.2331V34.6929H10.2082V36.0125ZM10.2082 38.4136H18.318C19.0131 37.9921 19.701 37.5499 20.3754 37.094H10.2082V38.4136ZM10.2082 40.8153H14.0559C14.8846 40.4075 15.7061 39.9587 16.5205 39.4951H10.2082V40.8153ZM10.6138 42.3278C10.6585 42.3104 10.7035 42.293 10.749 42.2755C11.0648 42.1562 11.3806 42.0298 11.6969 41.8962H10.2082V42.4791C10.3456 42.4318 10.4786 42.3802 10.6138 42.3278ZM5.70754 43.7013C6.25542 43.6094 6.82354 43.5043 7.38565 43.3642C7.82132 43.2585 8.25644 43.1392 8.69157 42.9991V27.8119C8.1229 28.5135 7.50496 29.3422 6.852 30.2622C5.96752 31.5047 5.0617 32.9655 4.17722 34.6009C3.30642 36.2303 2.46354 38.0907 2.04921 40.0567C1.85272 41.0118 1.81057 42.0577 2.14772 42.7462C2.3163 43.0828 2.54126 43.3149 2.87786 43.4901C3.21502 43.6515 3.65726 43.7571 4.14876 43.7851C4.65449 43.813 5.15255 43.7779 5.70754 43.7013ZM16.8216 12.6038H9.50872V13.5299H16.8216V12.6038ZM16.8216 10.9465H9.50872V11.8726H16.8216V10.9465ZM16.8216 9.28868H9.50872V10.2148H16.8216V9.28868ZM16.8216 7.63137H9.50872V8.55746H16.8216V7.63137ZM16.8216 5.97352H9.50872V6.8996H16.8216V5.97352ZM16.8216 4.31568H9.50872V5.2423H16.8216V4.31568ZM16.8216 2.65782H9.50872V3.58444H16.8216V2.65782ZM16.8216 1.00051H9.50872V1.92659H16.8216V1.00051ZM22.9659 16.809V15.4894H10.2082V16.809H22.9659ZM22.9659 33.6113V32.2912H10.2082V33.6113H22.9659ZM22.9659 31.2102V29.8901H10.2082V31.2102H22.9659ZM22.9659 28.8086V27.4884H10.2082V28.8086H22.9659ZM22.9659 25.0873H20.3732H10.2082V26.4146H22.9659V25.0873ZM22.9659 24.0129V22.6927H10.2082V24.0129H22.9659ZM22.9659 21.6118V20.2916H10.2082V21.6118H22.9659ZM10.2082 19.2101H22.9659V17.8905H10.2082V19.2101ZM33.7296 20.5308C34.0667 21.0081 34.3196 21.5696 34.4603 22.152C34.579 22.7349 34.6425 23.3462 34.5933 23.9286C34.5883 24.1382 34.5599 24.3376 34.5313 24.5386C34.5187 24.6272 34.506 24.7162 34.4953 24.8065C34.4859 24.9033 34.4645 24.9973 34.4428 25.0924C34.4315 25.1418 34.4202 25.1916 34.4105 25.2422L34.3618 25.4523L34.341 25.5651L34.3267 25.6138L34.3196 25.6423C34.3172 25.6519 34.3181 25.6515 34.3189 25.6512C34.3205 25.6505 34.3218 25.65 34.2988 25.7189C34.1789 26.1825 33.8774 26.9055 33.5966 27.3975C33.3158 27.9306 32.9852 28.4298 32.6486 28.9284C31.9606 29.9038 31.2091 30.8446 30.3734 31.7368C28.6745 33.5829 26.7714 35.3311 24.7211 36.9533C24.1525 37.4098 23.563 37.8592 22.9659 38.2872C22.91 38.3364 22.8465 38.3791 22.7907 38.4136C22.285 38.7863 21.7656 39.1443 21.2456 39.4951C20.5718 39.9516 19.8904 40.3938 19.203 40.8153C19.0593 40.9091 18.9118 40.9997 18.7658 41.0894C18.705 41.1267 18.6444 41.1639 18.5845 41.2011C18.1778 41.4398 17.763 41.6718 17.3486 41.8962C16.4992 42.3598 15.6361 42.8021 14.7581 43.2164C13.9366 43.6028 13.1014 43.9679 12.2585 44.2908C12.2088 44.309 12.1599 44.3283 12.1112 44.3475C12.0297 44.3797 11.9486 44.4116 11.865 44.438C11.8439 44.4462 11.8227 44.4543 11.8015 44.4625C11.7316 44.4895 11.6615 44.5166 11.5913 44.5431C10.3768 44.9853 9.14092 45.3367 7.88426 45.5896C7.25921 45.7231 6.6276 45.8145 5.98832 45.8988C5.34959 45.9689 4.64737 45.9974 3.97307 45.9268C3.28562 45.8704 2.55494 45.7018 1.86695 45.3017C1.17896 44.9158 0.603169 44.2486 0.32239 43.5322C0.0410642 42.8163 -0.02188 42.1141 0.00603368 41.4682C0.0339474 40.8218 0.146697 40.2181 0.293928 39.65C0.581822 38.5121 1.0175 37.4941 1.48765 36.5461C1.95835 35.5987 2.47065 34.7208 2.99006 33.9064C4.02232 32.2698 5.12464 30.8867 6.12898 29.7001C7.04849 28.6192 7.93297 27.7341 8.69157 27.0111V15.3416V0H17.8193V14.5064H24.7211V18.4734C25.4584 18.3464 26.2805 18.2555 27.1786 18.2276C27.9723 18.2063 28.8217 18.2276 29.7204 18.3683C30.6191 18.5155 31.5884 18.7684 32.5014 19.365C32.9436 19.6666 33.3924 20.0387 33.7296 20.5308ZM120.557 11.2779L127.782 29.9033C128.078 30.6534 128.414 31.1568 128.789 31.4134C129.164 31.6503 129.51 31.7786 129.826 31.7984V32.3906C129.431 32.3511 128.947 32.3314 128.375 32.3314C127.802 32.3116 127.23 32.3018 126.657 32.3018C125.887 32.3018 125.167 32.3116 124.496 32.3314C123.824 32.3314 123.281 32.3511 122.867 32.3906V31.7984C123.874 31.7589 124.515 31.5911 124.792 31.295C125.068 30.9791 125.009 30.3178 124.614 29.311L122.797 24.4548H115.636L114.428 27.5936C114.112 28.3832 113.924 29.0544 113.865 29.6072C113.806 30.1402 113.855 30.5646 114.013 30.8804C114.191 31.1963 114.477 31.4233 114.872 31.5615C115.286 31.6997 115.8 31.7786 116.412 31.7984V32.3906C115.859 32.3511 115.277 32.3314 114.665 32.3314C114.072 32.3116 113.52 32.3018 113.006 32.3018C112.513 32.3018 112.088 32.3116 111.733 32.3314C111.398 32.3314 111.082 32.3511 110.786 32.3906V31.7984C111.18 31.6997 111.585 31.4727 112 31.1173C112.414 30.7422 112.789 30.1105 113.125 29.2222L120.083 11.2779H120.32H120.557ZM119.267 15.0232L122.575 23.8626H115.864L119.267 15.0232ZM42.0639 11.4851C41.3927 11.4654 40.8499 11.4457 40.4353 11.4259V12.0181C41.1065 12.0379 41.6099 12.1168 41.9455 12.255C42.3008 12.3735 42.5377 12.6104 42.6561 12.9657C42.7746 13.3013 42.8338 13.8343 42.8338 14.5647V29.2518C42.8338 29.9625 42.7746 30.4955 42.6561 30.8508C42.5377 31.2062 42.3008 31.443 41.9455 31.5615C41.6099 31.6799 41.1065 31.7589 40.4353 31.7984V32.3906C40.8499 32.3511 41.3927 32.3314 42.0639 32.3314C42.7351 32.3116 43.4162 32.3018 44.1071 32.3018C45.331 32.3018 46.3773 32.3215 47.2459 32.361C48.1145 32.3807 48.7659 32.3906 49.2002 32.3906C50.6808 32.3906 51.954 32.1438 53.02 31.6503C54.086 31.1568 54.8954 30.4856 55.4481 29.6368C56.0206 28.7682 56.3069 27.7713 56.3069 26.646C56.3069 25.8367 56.1292 25.0668 55.7739 24.3364C55.4185 23.606 54.7967 22.9743 53.9084 22.4413C53.0398 21.8885 51.8257 21.5134 50.2662 21.316V21.2568C51.3717 20.9212 52.2501 20.4869 52.9016 19.9539C53.5728 19.4012 54.0466 18.7991 54.3229 18.1476C54.619 17.4765 54.7671 16.7954 54.7671 16.1045C54.7671 14.7424 54.244 13.627 53.1977 12.7584C52.1514 11.8898 50.5919 11.4555 48.5191 11.4555C48.1638 11.4555 47.5617 11.4654 46.7129 11.4851C45.864 11.5049 44.9757 11.5148 44.0479 11.5148C43.3964 11.5148 42.7351 11.5049 42.0639 11.4851ZM46.0022 12.5215C46.2786 12.1859 46.8708 12.0181 47.7789 12.0181C49.2594 12.0181 50.3156 12.3932 50.9473 13.1434C51.5987 13.8738 51.9244 14.9694 51.9244 16.4302C51.9244 17.2791 51.806 18.0786 51.5691 18.8287C51.3322 19.5591 50.8979 20.1513 50.2662 20.6054C49.6345 21.0397 48.7363 21.2568 47.5716 21.2568H45.5876V14.5647C45.5876 13.5382 45.7258 12.8571 46.0022 12.5215ZM45.5876 21.7602V29.2518C45.5876 29.9427 45.6469 30.4659 45.7653 30.8212C45.8838 31.1765 46.1009 31.4134 46.4168 31.5319C46.7326 31.6503 47.1965 31.7095 47.8085 31.7095C49.7431 31.7095 51.1447 31.2654 52.0133 30.377C52.9016 29.469 53.3458 28.1858 53.3458 26.5276C53.3458 25.0076 52.9312 23.833 52.1021 23.0039C51.2927 22.1748 49.9503 21.7602 48.075 21.7602H45.5876ZM66.2328 12.0181V11.4259C65.7788 11.4457 65.2063 11.4654 64.5154 11.4851C63.8442 11.5049 63.1632 11.5148 62.4722 11.5148C61.7023 11.5148 60.9818 11.5049 60.3106 11.4851C59.6394 11.4654 59.0966 11.4457 58.682 11.4259V12.0181C59.3532 12.0379 59.8566 12.1168 60.1922 12.255C60.5475 12.3735 60.7844 12.6104 60.9028 12.9657C61.0213 13.3013 61.0805 13.8343 61.0805 14.5647V29.2518C61.0805 29.9625 61.0213 30.4955 60.9028 30.8508C60.7844 31.2062 60.5475 31.443 60.1922 31.5615C59.8566 31.6799 59.3532 31.7589 58.682 31.7984V32.3906C59.0966 32.3511 59.6394 32.3314 60.3106 32.3314C60.9818 32.3116 61.7023 32.3018 62.4722 32.3018C63.1632 32.3018 63.8442 32.3116 64.5154 32.3314C65.2063 32.3314 65.7788 32.3511 66.2328 32.3906V31.7984C65.5617 31.7589 65.0484 31.6799 64.6931 31.5615C64.3575 31.443 64.1305 31.2062 64.012 30.8508C63.8936 30.4955 63.8343 29.9625 63.8343 29.2518V14.5647C63.8343 13.8343 63.8936 13.3013 64.012 12.9657C64.1305 12.6104 64.3575 12.3735 64.6931 12.255C65.0484 12.1168 65.5617 12.0379 66.2328 12.0181ZM85.0024 11.4259C84.9234 12.1761 84.8642 12.9065 84.8247 13.6171C84.805 14.3081 84.7951 14.8411 84.7951 15.2161C84.7951 15.6899 84.805 16.1341 84.8247 16.5486C84.8444 16.9632 84.8642 17.3284 84.8839 17.6443H84.2029C84.0647 16.2624 83.8771 15.1767 83.6403 14.387C83.4034 13.5777 82.9888 12.9953 82.3966 12.64C81.8044 12.2846 80.8864 12.107 79.6428 12.107H78.0438V28.9557C78.0438 29.7453 78.1128 30.3376 78.251 30.7324C78.409 31.1272 78.7051 31.3937 79.1394 31.5319C79.5737 31.6701 80.2054 31.7589 81.0345 31.7984V32.3906C80.5212 32.3511 79.8698 32.3314 79.0801 32.3314C78.2905 32.3116 77.491 32.3018 76.6816 32.3018C75.7933 32.3018 74.9543 32.3116 74.1647 32.3314C73.3948 32.3314 72.773 32.3511 72.2992 32.3906V31.7984C73.1283 31.7589 73.76 31.6701 74.1943 31.5319C74.6286 31.3937 74.9148 31.1272 75.053 30.7324C75.211 30.3376 75.2899 29.7453 75.2899 28.9557V12.107H73.6909C72.467 12.107 71.549 12.2846 70.9371 12.64C70.3449 12.9953 69.9303 13.5777 69.6934 14.387C69.4565 15.1767 69.269 16.2624 69.1308 17.6443H68.4497C68.4892 17.3284 68.509 16.9632 68.509 16.5486C68.5287 16.1341 68.5386 15.6899 68.5386 15.2161C68.5386 14.8411 68.5188 14.3081 68.4794 13.6171C68.4596 12.9065 68.4103 12.1761 68.3313 11.4259C69.1604 11.4457 70.0586 11.4654 71.0259 11.4851C72.013 11.5049 73 11.5148 73.987 11.5148H76.6816H79.3466C80.3337 11.5148 81.3207 11.5049 82.3078 11.4851C83.2948 11.4654 84.193 11.4457 85.0024 11.4259ZM112.721 12.0181V11.4259C112.425 11.4457 112.109 11.4654 111.774 11.4851C111.438 11.5049 111.014 11.5148 110.5 11.5148C109.987 11.5148 109.434 11.5049 108.842 11.4851C108.25 11.4654 107.668 11.4457 107.095 11.4259V12.0181C107.924 12.0379 108.546 12.1761 108.961 12.4327C109.375 12.6696 109.592 13.094 109.612 13.706C109.651 14.2982 109.494 15.1372 109.138 16.2229L105.492 27.686L101.232 14.5055C100.995 13.7356 100.896 13.1828 100.936 12.8473C100.995 12.5117 101.193 12.2945 101.528 12.1958C101.883 12.0971 102.357 12.0379 102.949 12.0181V11.4259C102.535 11.4457 101.992 11.4654 101.321 11.4851C100.65 11.5049 99.9292 11.5148 99.1593 11.5148C98.6657 11.5148 98.1525 11.5049 97.6195 11.4851C97.0865 11.4654 96.6423 11.4457 96.287 11.4259V12.0181C96.5634 12.0379 96.8595 12.1662 97.1753 12.4031C97.4912 12.64 97.7774 13.1434 98.034 13.9133L98.8204 16.2465L95.2275 27.7182L90.8978 14.5055C90.7004 13.8935 90.5918 13.4197 90.572 13.0841C90.572 12.7288 90.6806 12.4722 90.8978 12.3143C91.1347 12.1563 91.5097 12.0576 92.023 12.0181V11.4259C91.6676 11.4457 91.2037 11.4654 90.6313 11.4851C90.0785 11.5049 89.4764 11.5148 88.825 11.5148C88.2722 11.5148 87.6998 11.5049 87.1075 11.4851C86.535 11.4654 86.0514 11.4457 85.6566 11.4259V12.0181C85.9724 12.0379 86.3278 12.1662 86.7226 12.4031C87.1174 12.64 87.4431 13.1434 87.6998 13.9133L93.9773 32.5387H94.0958H94.2142H94.3326H94.4511L99.1672 17.2755L104.312 32.5387H104.43H104.548H104.667H104.785L110.382 14.5943C110.658 13.6862 111.023 13.0545 111.477 12.6992C111.932 12.3241 112.346 12.0971 112.721 12.0181ZM145.581 12.0181V11.4259C145.285 11.4457 144.969 11.4654 144.633 11.4851C144.298 11.5049 143.873 11.5148 143.36 11.5148C142.847 11.5148 142.294 11.5049 141.702 11.4851C141.11 11.4654 140.527 11.4457 139.955 11.4259V12.0181C140.784 12.0379 141.426 12.1662 141.88 12.4031C142.334 12.6202 142.561 13.0249 142.561 13.6171C142.58 14.2094 142.314 15.0483 141.761 16.1341L137.984 23.659L133.055 14.2094C132.759 13.6369 132.671 13.1927 132.789 12.8769C132.907 12.561 133.154 12.3439 133.529 12.2254C133.904 12.107 134.339 12.0478 134.832 12.0478V11.4259C134.2 11.4654 133.509 11.495 132.759 11.5148H130.687C130.193 11.5148 129.729 11.5049 129.295 11.4851C128.88 11.4654 128.476 11.4457 128.081 11.4259V12.0478C128.298 12.0478 128.535 12.1465 128.791 12.3439C129.068 12.5215 129.403 12.9756 129.798 13.706L135.809 24.8033V29.2518C135.809 29.9625 135.75 30.4955 135.632 30.8508C135.513 31.2062 135.276 31.443 134.921 31.5615C134.585 31.6799 134.082 31.7589 133.411 31.7984V32.3906C133.825 32.3511 134.368 32.3314 135.039 32.3314C135.711 32.3116 136.431 32.3018 137.201 32.3018C137.892 32.3018 138.573 32.3116 139.244 32.3314C139.935 32.3314 140.508 32.3511 140.962 32.3906V31.7984C140.29 31.7589 139.777 31.6799 139.422 31.5615C139.086 31.443 138.859 31.2062 138.741 30.8508C138.622 30.4955 138.563 29.9625 138.563 29.2518V23.8594L143.212 14.6535C143.666 13.7849 144.081 13.1532 144.456 12.7584C144.831 12.3439 145.206 12.0971 145.581 12.0181Z" fill="#3E54EB"/>
</svg>
