<svg width="17" height="17" viewBox="0 0 17 17" fill="none" xmlns="http://www.w3.org/2000/svg">
<path d="M5.72338 7.07581C5.29242 6.21555 4.40267 5.625 3.375 5.625C1.92525 5.625 0.75 6.80025 0.75 8.25C0.75 9.69975 1.92525 10.875 3.375 10.875C4.40267 10.875 5.29242 10.2844 5.72338 9.42419M5.72338 7.07581C5.90039 7.42912 6 7.82793 6 8.25C6 8.67207 5.90039 9.07088 5.72338 9.42419M5.72338 7.07581L10.7766 4.54919M5.72338 9.42419L10.7766 11.9508M10.7766 4.54919C11.2076 5.40945 12.0973 6 13.125 6C14.5747 6 15.75 4.82475 15.75 3.375C15.75 1.92525 14.5747 0.75 13.125 0.75C11.6753 0.75 10.5 1.92525 10.5 3.375C10.5 3.79707 10.5996 4.19588 10.7766 4.54919ZM10.7766 11.9508C10.5996 12.3041 10.5 12.7029 10.5 13.125C10.5 14.5747 11.6753 15.75 13.125 15.75C14.5747 15.75 15.75 14.5747 15.75 13.125C15.75 11.6753 14.5747 10.5 13.125 10.5C12.0973 10.5 11.2076 11.0906 10.7766 11.9508Z" stroke="#0F1015" stroke-width="1.5" stroke-linecap="round"/>
</svg>
