<svg width="122" height="39" viewBox="0 0 122 39" fill="none" xmlns="http://www.w3.org/2000/svg">
<path fill-rule="evenodd" clip-rule="evenodd" d="M27.3986 20.2124C27.4275 20.0806 27.4567 19.9477 27.4644 19.8178C27.5287 19.4315 27.5055 19.0684 27.4644 18.7181C27.3531 18.0271 26.9965 17.4424 26.4523 17.0383C25.9077 16.6292 25.2468 16.3655 24.5859 16.2018C23.9246 16.0321 23.2632 15.9505 22.6434 15.9154C21.9118 15.8684 21.2272 15.8738 20.6009 15.9154V28.2261C21.8119 27.2546 22.9649 26.248 24.0062 25.2008C24.6794 24.5161 25.3289 23.8375 25.8963 23.1296C26.1714 22.7725 26.435 22.4158 26.663 22.0586C26.903 21.6668 27.0375 21.4324 27.2072 20.9585C27.2303 20.8761 27.2524 20.7936 27.2743 20.7116C27.3021 20.6077 27.3297 20.5045 27.3591 20.403C27.3705 20.34 27.3845 20.2763 27.3986 20.2124ZM8.50684 30.0104H18.2666C18.559 29.8001 18.8513 29.5835 19.1382 29.3609V28.9107H8.50684V30.0104ZM8.50684 32.0113H15.265C15.8442 31.6601 16.4175 31.2916 16.9795 30.9117H8.50684V32.0113ZM8.50684 34.0127H11.7133C12.4038 33.6729 13.0884 33.2989 13.7671 32.9126H8.50684V34.0127ZM8.84476 35.2732C8.88207 35.2587 8.91957 35.2441 8.95748 35.2296C9.22065 35.1302 9.48382 35.0248 9.74745 34.9135H8.50684V35.3993C8.62128 35.3599 8.73211 35.3169 8.84476 35.2732ZM4.75629 36.4178C5.21285 36.3411 5.68629 36.2536 6.15471 36.1368C6.51777 36.0488 6.88037 35.9493 7.24298 35.8326V23.1766C6.76908 23.7613 6.25414 24.4518 5.71 25.2185C4.97294 26.2539 4.21808 27.4713 3.48102 28.8341C2.75535 30.1919 2.05295 31.7422 1.70768 33.3806C1.54393 34.1765 1.50881 35.0481 1.78977 35.6219C1.93025 35.9024 2.11772 36.0958 2.39822 36.2417C2.67918 36.3763 3.04771 36.4643 3.4573 36.4876C3.87874 36.5108 4.29379 36.4816 4.75629 36.4178ZM14.018 10.5032H7.92394V11.2749H14.018V10.5032ZM14.018 9.12212H7.92394V9.89384H14.018V9.12212ZM14.018 7.74057H7.92394V8.5123H14.018V7.74057ZM14.018 6.35948H7.92394V7.13122H14.018V6.35948ZM14.018 4.97793H7.92394V5.74967H14.018V4.97793ZM14.018 3.5964H7.92394V4.36858H14.018V3.5964ZM14.018 2.21485H7.92394V2.98703H14.018V2.21485ZM14.018 0.833763H7.92394V1.60549H14.018V0.833763ZM19.1382 14.0075V12.9078H8.50684V14.0075H19.1382ZM19.1382 28.0095V26.9093H8.50684V28.0095H19.1382ZM19.1382 26.0085V24.9084H8.50684V26.0085H19.1382ZM19.1382 24.0071V22.907H8.50684V24.0071H19.1382ZM19.1382 20.9061H16.9776H8.50684V22.0121H19.1382V20.9061ZM19.1382 20.0107V18.9106H8.50684V20.0107H19.1382ZM19.1382 18.0098V16.9097H8.50684V18.0098H19.1382ZM8.50684 16.0084H19.1382V14.9087H8.50684V16.0084ZM28.108 17.109C28.389 17.5067 28.5997 17.9747 28.7169 18.46C28.8159 18.9457 28.8688 19.4552 28.8277 19.9405C28.8236 20.1152 28.7999 20.2813 28.7761 20.4488C28.7656 20.5227 28.755 20.5968 28.7461 20.6721C28.7383 20.7528 28.7204 20.8311 28.7024 20.9103C28.693 20.9515 28.6835 20.993 28.6754 21.0351L28.6348 21.2103L28.6175 21.3042L28.6056 21.3448L28.5997 21.3686C28.5976 21.3766 28.5984 21.3762 28.5991 21.376C28.6004 21.3754 28.6015 21.375 28.5823 21.4324C28.4825 21.8187 28.2311 22.4213 27.9972 22.8313C27.7632 23.2755 27.4877 23.6915 27.2072 24.107C26.6339 24.9198 26.0076 25.7038 25.3112 26.4473C23.8954 27.9857 22.3095 29.4425 20.6009 30.7944C20.1271 31.1748 19.6358 31.5493 19.1382 31.906C19.0917 31.947 19.0388 31.9826 18.9923 32.0113C18.5708 32.3219 18.138 32.6202 17.7047 32.9126C17.1432 33.293 16.5754 33.6615 16.0025 34.0127C15.8828 34.0909 15.7599 34.1664 15.6383 34.2411C15.5876 34.2722 15.5371 34.3032 15.4871 34.3343C15.1482 34.5331 14.8025 34.7265 14.4572 34.9135C13.7493 35.2999 13.03 35.6684 12.2985 36.0137C11.6138 36.3357 10.9178 36.6399 10.2154 36.909C10.174 36.9242 10.1333 36.9402 10.0927 36.9562C10.0247 36.9831 9.95716 37.0097 9.88748 37.0317C9.86978 37.0385 9.85206 37.0454 9.83432 37.0522C9.77616 37.0747 9.71779 37.0972 9.65942 37.1193C8.64732 37.4878 7.61744 37.7806 6.57022 37.9913C6.04935 38.1026 5.523 38.1788 4.99027 38.249C4.45799 38.3074 3.87281 38.3311 3.31089 38.2723C2.73802 38.2253 2.12911 38.0848 1.55579 37.7514C0.982464 37.4299 0.502642 36.8739 0.26866 36.2768C0.0342214 35.6802 -0.0182321 35.0951 0.00502929 34.5569C0.0282907 34.0182 0.122249 33.5151 0.244941 33.0417C0.484853 32.0934 0.847916 31.2451 1.23971 30.4551C1.63196 29.6656 2.05887 28.934 2.49172 28.2553C3.35193 26.8915 4.27053 25.739 5.10748 24.7501C5.87374 23.8493 6.61081 23.1118 7.24298 22.5093V12.7846V0H14.8495V12.0886H20.6009V15.3945C21.2153 15.2887 21.9004 15.213 22.6489 15.1897C23.3102 15.1719 24.0181 15.1897 24.767 15.3069C25.5159 15.4296 26.3237 15.6403 27.0845 16.1375C27.453 16.3888 27.827 16.6989 28.108 17.109ZM100.464 9.39822L106.485 24.9194C106.732 25.5445 107.012 25.964 107.324 26.1779C107.637 26.3753 107.925 26.4822 108.188 26.4986V26.9922C107.859 26.9593 107.456 26.9428 106.979 26.9428C106.502 26.9264 106.025 26.9181 105.548 26.9181C104.906 26.9181 104.306 26.9264 103.746 26.9428C103.187 26.9428 102.735 26.9593 102.389 26.9922V26.4986C103.228 26.4657 103.763 26.3259 103.993 26.0792C104.223 25.8159 104.174 25.2649 103.845 24.4259L102.33 20.379H96.3633L95.3564 22.9947C95.0932 23.6527 94.937 24.212 94.8876 24.6726C94.8382 25.1168 94.8794 25.4705 95.011 25.7337C95.159 25.9969 95.3976 26.1861 95.7266 26.3012C96.0721 26.4164 96.4998 26.4822 97.0097 26.4986V26.9922C96.5491 26.9593 96.0638 26.9428 95.5539 26.9428C95.0603 26.9264 94.5997 26.9181 94.172 26.9181C93.7607 26.9181 93.4071 26.9264 93.1109 26.9428C92.8313 26.9428 92.5681 26.9593 92.3213 26.9922V26.4986C92.6503 26.4164 92.9876 26.2272 93.333 25.9311C93.6785 25.6185 93.9911 25.0921 94.2707 24.3518L100.07 9.39822H100.267H100.464ZM99.389 12.5193L102.146 19.8855H96.5533L99.389 12.5193ZM35.0533 9.57095C34.4939 9.5545 34.0416 9.53805 33.6961 9.5216V10.0151C34.2554 10.0316 34.6749 10.0974 34.9546 10.2125C35.2507 10.3112 35.4481 10.5086 35.5468 10.8047C35.6455 11.0844 35.6948 11.5286 35.6948 12.1372V24.3765C35.6948 24.9687 35.6455 25.4129 35.5468 25.709C35.4481 26.0051 35.2507 26.2025 34.9546 26.3012C34.6749 26.3999 34.2554 26.4657 33.6961 26.4986V26.9922C34.0416 26.9593 34.4939 26.9428 35.0533 26.9428C35.6126 26.9264 36.1801 26.9181 36.7559 26.9181C37.7758 26.9181 38.6477 26.9346 39.3716 26.9675C40.0954 26.9839 40.6383 26.9922 41.0002 26.9922C42.234 26.9922 43.295 26.7865 44.1834 26.3753C45.0717 25.964 45.7462 25.4047 46.2068 24.6973C46.6839 23.9735 46.9224 23.1427 46.9224 22.205C46.9224 21.5306 46.7743 20.889 46.4782 20.2803C46.1821 19.6716 45.6639 19.1452 44.9236 18.701C44.1998 18.2404 43.1881 17.9279 41.8885 17.7634V17.714C42.8097 17.4344 43.5418 17.0724 44.0847 16.6283C44.644 16.1677 45.0388 15.6659 45.2691 15.123C45.5159 14.5637 45.6392 13.9962 45.6392 13.4204C45.6392 12.2853 45.2033 11.3558 44.3314 10.632C43.4595 9.90819 42.1599 9.54628 40.4326 9.54628C40.1365 9.54628 39.6348 9.5545 38.9274 9.57095C38.22 9.5874 37.4797 9.59563 36.7066 9.59563C36.1637 9.59563 35.6126 9.5874 35.0533 9.57095ZM38.3352 10.4346C38.5655 10.155 39.059 10.0151 39.8157 10.0151C41.0495 10.0151 41.9296 10.3277 42.4561 10.9528C42.9989 11.5615 43.2704 12.4745 43.2704 13.6918C43.2704 14.3992 43.1717 15.0655 42.9742 15.6906C42.7768 16.2993 42.4149 16.7928 41.8885 17.1711C41.3621 17.5331 40.6136 17.714 39.643 17.714H37.9897V12.1372C37.9897 11.2818 38.1049 10.7143 38.3352 10.4346ZM37.9897 18.1335V24.3765C37.9897 24.9523 38.0391 25.3882 38.1378 25.6843C38.2365 25.9805 38.4174 26.1779 38.6806 26.2766C38.9438 26.3753 39.3304 26.4246 39.8404 26.4246C41.4526 26.4246 42.6206 26.0545 43.3444 25.3142C44.0847 24.5575 44.4548 23.4882 44.4548 22.1063C44.4548 20.8396 44.1093 19.8608 43.4184 19.1699C42.7439 18.479 41.6253 18.1335 40.0625 18.1335H37.9897ZM55.194 10.0151V9.5216C54.8157 9.53805 54.3386 9.5545 53.7628 9.57095C53.2035 9.5874 52.636 9.59563 52.0602 9.59563C51.4186 9.59563 50.8182 9.5874 50.2589 9.57095C49.6995 9.5545 49.2471 9.53805 48.9017 9.5216V10.0151C49.461 10.0316 49.8805 10.0974 50.1602 10.2125C50.4563 10.3112 50.6537 10.5086 50.7524 10.8047C50.8511 11.0844 50.9004 11.5286 50.9004 12.1372V24.3765C50.9004 24.9687 50.8511 25.4129 50.7524 25.709C50.6537 26.0051 50.4563 26.2025 50.1602 26.3012C49.8805 26.3999 49.461 26.4657 48.9017 26.4986V26.9922C49.2471 26.9593 49.6995 26.9428 50.2589 26.9428C50.8182 26.9264 51.4186 26.9181 52.0602 26.9181C52.636 26.9181 53.2035 26.9264 53.7628 26.9428C54.3386 26.9428 54.8157 26.9593 55.194 26.9922V26.4986C54.6347 26.4657 54.207 26.3999 53.9109 26.3012C53.6312 26.2025 53.4421 26.0051 53.3433 25.709C53.2446 25.4129 53.1953 24.9687 53.1953 24.3765V12.1372C53.1953 11.5286 53.2446 11.0844 53.3433 10.8047C53.4421 10.5086 53.6312 10.3112 53.9109 10.2125C54.207 10.0974 54.6347 10.0316 55.194 10.0151ZM70.8353 9.5216C70.7695 10.1467 70.7202 10.7554 70.6873 11.3476C70.6708 11.9234 70.6626 12.3676 70.6626 12.6801C70.6626 13.0749 70.6708 13.4451 70.6873 13.7905C70.7037 14.136 70.7202 14.4403 70.7366 14.7035H70.1691C70.0539 13.552 69.8976 12.6472 69.7002 11.9892C69.5028 11.3147 69.1573 10.8294 68.6638 10.5333C68.1703 10.2372 67.4054 10.0891 66.369 10.0891H65.0365V24.1298C65.0365 24.7878 65.094 25.2813 65.2092 25.6103C65.3408 25.9393 65.5876 26.1614 65.9495 26.2766C66.3114 26.3917 66.8378 26.4657 67.5287 26.4986V26.9922C67.101 26.9593 66.5582 26.9428 65.9001 26.9428C65.2421 26.9264 64.5759 26.9181 63.9014 26.9181C63.1611 26.9181 62.4619 26.9264 61.8039 26.9428C61.1623 26.9428 60.6441 26.9593 60.2493 26.9922V26.4986C60.9403 26.4657 61.4667 26.3917 61.8286 26.2766C62.1905 26.1614 62.429 25.9393 62.5442 25.6103C62.6758 25.2813 62.7416 24.7878 62.7416 24.1298V10.0891H61.4091C60.3892 10.0891 59.6242 10.2372 59.1142 10.5333C58.6207 10.8294 58.2753 11.3147 58.0779 11.9892C57.8804 12.6472 57.7242 13.552 57.609 14.7035H57.0415C57.0744 14.4403 57.0908 14.136 57.0908 13.7905C57.1073 13.4451 57.1155 13.0749 57.1155 12.6801C57.1155 12.3676 57.099 11.9234 57.0661 11.3476C57.0497 10.7554 57.0086 10.1467 56.9428 9.5216C57.6337 9.53805 58.3822 9.5545 59.1883 9.57095C60.0108 9.5874 60.8333 9.59563 61.6559 9.59563H63.9014H66.1222C66.9447 9.59563 67.7673 9.5874 68.5898 9.57095C69.4123 9.5545 70.1608 9.53805 70.8353 9.5216ZM93.9343 10.0151V9.5216C93.6875 9.53805 93.4243 9.5545 93.1447 9.57095C92.865 9.5874 92.5113 9.59563 92.0836 9.59563C91.6559 9.59563 91.1953 9.5874 90.7018 9.57095C90.2082 9.5545 89.7229 9.53805 89.2459 9.5216V10.0151C89.9368 10.0316 90.455 10.1467 90.8005 10.3606C91.1459 10.558 91.3269 10.9117 91.3433 11.4216C91.3762 11.9152 91.2446 12.6143 90.9485 13.5191L87.9101 23.0717L84.36 12.0879C84.1626 11.4463 84.0804 10.9857 84.1133 10.706C84.1626 10.4264 84.3271 10.2454 84.6068 10.1632C84.9029 10.0809 85.2977 10.0316 85.7912 10.0151V9.5216C85.4458 9.53805 84.9934 9.5545 84.4341 9.57095C83.8747 9.5874 83.2743 9.59563 82.6327 9.59563C82.2215 9.59563 81.7937 9.5874 81.3496 9.57095C80.9054 9.5545 80.5353 9.53805 80.2392 9.5216V10.0151C80.4695 10.0316 80.7162 10.1385 80.9794 10.3359C81.2426 10.5333 81.4812 10.9528 81.695 11.5944L82.3504 13.5388L79.3563 23.0985L75.7481 12.0879C75.5836 11.5779 75.4932 11.1831 75.4767 10.9035C75.4767 10.6073 75.5672 10.3935 75.7481 10.2619C75.9455 10.1303 76.2581 10.048 76.6858 10.0151V9.5216C76.3897 9.53805 76.0031 9.5545 75.5261 9.57095C75.0654 9.5874 74.5637 9.59563 74.0208 9.59563C73.5602 9.59563 73.0831 9.5874 72.5896 9.57095C72.1125 9.5545 71.7095 9.53805 71.3805 9.5216V10.0151C71.6437 10.0316 71.9398 10.1385 72.2688 10.3359C72.5978 10.5333 72.8693 10.9528 73.0831 11.5944L78.3144 27.1155H78.4131H78.5118H78.6105H78.7093L82.6394 14.3962L86.9263 27.1155H87.025H87.1237H87.2225H87.3212L91.9849 12.1619C92.2152 11.4052 92.5196 10.8788 92.8979 10.5827C93.2763 10.2701 93.6217 10.0809 93.9343 10.0151ZM121.317 10.0151V9.5216C121.071 9.53805 120.807 9.5545 120.528 9.57095C120.248 9.5874 119.894 9.59563 119.467 9.59563C119.039 9.59563 118.578 9.5874 118.085 9.57095C117.591 9.5545 117.106 9.53805 116.629 9.5216V10.0151C117.32 10.0316 117.855 10.1385 118.233 10.3359C118.611 10.5169 118.801 10.8541 118.801 11.3476C118.817 11.8411 118.595 12.5403 118.134 13.4451L114.987 19.7159L110.88 11.8411C110.633 11.3641 110.559 10.9939 110.657 10.7307C110.756 10.4675 110.962 10.2866 111.274 10.1878C111.587 10.0891 111.949 10.0398 112.36 10.0398V9.5216C111.834 9.5545 111.258 9.57918 110.633 9.59563H108.905C108.494 9.59563 108.108 9.5874 107.746 9.57095C107.4 9.5545 107.063 9.53805 106.734 9.5216V10.0398C106.915 10.0398 107.112 10.122 107.326 10.2866C107.557 10.4346 107.836 10.813 108.165 11.4216L113.174 20.6694V24.3765C113.174 24.9687 113.125 25.4129 113.026 25.709C112.928 26.0051 112.73 26.2025 112.434 26.3012C112.154 26.3999 111.735 26.4657 111.176 26.4986V26.9922C111.521 26.9593 111.974 26.9428 112.533 26.9428C113.092 26.9264 113.693 26.9181 114.334 26.9181C114.91 26.9181 115.477 26.9264 116.037 26.9428C116.613 26.9428 117.09 26.9593 117.468 26.9922V26.4986C116.909 26.4657 116.481 26.3999 116.185 26.3012C115.905 26.2025 115.716 26.0051 115.617 25.709C115.519 25.4129 115.469 24.9687 115.469 24.3765V19.8828L119.343 12.2113C119.722 11.4875 120.067 10.961 120.38 10.632C120.692 10.2866 121.005 10.0809 121.317 10.0151Z" fill="white"/>
</svg>
